<svg width="20" height="20" viewBox="0 0 20 20" fill="none" xmlns="http://www.w3.org/2000/svg">
<path fill-rule="evenodd" clip-rule="evenodd" d="M12.5 1.04102C12.8452 1.04102 13.125 1.32084 13.125 1.66602V4.99935C13.125 5.34453 12.8452 5.62435 12.5 5.62435C12.1548 5.62435 11.875 5.34453 11.875 4.99935V3.95768H8.75C8.40482 3.95768 8.125 3.67786 8.125 3.33268C8.125 2.9875 8.40482 2.70768 8.75 2.70768H11.875V1.66602C11.875 1.32084 12.1548 1.04102 12.5 1.04102ZM1.875 8.33268C1.875 7.9875 2.15482 7.70768 2.5 7.70768H17.5C17.8452 7.70768 18.125 7.9875 18.125 8.33268V15.8327C18.125 17.0984 17.099 18.1243 15.8333 18.1243H4.16667C2.90102 18.1243 1.875 17.0984 1.875 15.8327V8.33268ZM3.125 8.95768V15.8327C3.125 16.408 3.59136 16.8743 4.16667 16.8743H15.8333C16.4087 16.8743 16.875 16.408 16.875 15.8327V8.95768H3.125Z" fill="#FDFDFD"/>
<path fill-rule="evenodd" clip-rule="evenodd" d="M4.16667 3.95898C3.59137 3.95898 3.125 4.42535 3.125 5.00065V8.33398C3.125 8.67916 2.84518 8.95898 2.5 8.95898C2.15482 8.95898 1.875 8.67916 1.875 8.33398V5.00065C1.875 3.735 2.90101 2.70898 4.16667 2.70898H5.83333C6.17851 2.70898 6.45833 2.98881 6.45833 3.33398C6.45833 3.67916 6.17851 3.95898 5.83333 3.95898H4.16667Z" fill="#FDFDFD"/>
<path fill-rule="evenodd" clip-rule="evenodd" d="M5.83398 1.04102C6.17916 1.04102 6.45898 1.32084 6.45898 1.66602V4.99935C6.45898 5.34453 6.17916 5.62435 5.83398 5.62435C5.48881 5.62435 5.20898 5.34453 5.20898 4.99935V1.66602C5.20898 1.32084 5.48881 1.04102 5.83398 1.04102Z" fill="#FDFDFD"/>
<path fill-rule="evenodd" clip-rule="evenodd" d="M14.791 3.33398C14.791 2.98881 15.0708 2.70898 15.416 2.70898H15.8327C17.0984 2.70898 18.1243 3.735 18.1243 5.00065V8.33398C18.1243 8.67916 17.8445 8.95898 17.4993 8.95898C17.1542 8.95898 16.8743 8.67916 16.8743 8.33398V5.00065C16.8743 4.42535 16.408 3.95898 15.8327 3.95898H15.416C15.0708 3.95898 14.791 3.67916 14.791 3.33398Z" fill="#FDFDFD"/>
</svg>
