<svg width="44" height="44" viewBox="0 0 44 44" fill="none" xmlns="http://www.w3.org/2000/svg">
<rect width="44" height="44" rx="4" fill="#2C2830"/>
<path fill-rule="evenodd" clip-rule="evenodd" d="M25 11.25C25.4142 11.25 25.75 11.5858 25.75 12V16C25.75 16.4142 25.4142 16.75 25 16.75C24.5858 16.75 24.25 16.4142 24.25 16V14.75H20.5C20.0858 14.75 19.75 14.4142 19.75 14C19.75 13.5858 20.0858 13.25 20.5 13.25H24.25V12C24.25 11.5858 24.5858 11.25 25 11.25ZM12.25 20C12.25 19.5858 12.5858 19.25 13 19.25H31C31.4142 19.25 31.75 19.5858 31.75 20V29C31.75 30.5188 30.5188 31.75 29 31.75H15C13.4812 31.75 12.25 30.5188 12.25 29V20ZM13.75 20.75V29C13.75 29.6904 14.3096 30.25 15 30.25H29C29.6904 30.25 30.25 29.6904 30.25 29V20.75H13.75Z" fill="white"/>
<path fill-rule="evenodd" clip-rule="evenodd" d="M15 14.75C14.3096 14.75 13.75 15.3096 13.75 16V20C13.75 20.4142 13.4142 20.75 13 20.75C12.5858 20.75 12.25 20.4142 12.25 20V16C12.25 14.4812 13.4812 13.25 15 13.25H17C17.4142 13.25 17.75 13.5858 17.75 14C17.75 14.4142 17.4142 14.75 17 14.75H15Z" fill="white"/>
<path fill-rule="evenodd" clip-rule="evenodd" d="M17 11.25C17.4142 11.25 17.75 11.5858 17.75 12V16C17.75 16.4142 17.4142 16.75 17 16.75C16.5858 16.75 16.25 16.4142 16.25 16V12C16.25 11.5858 16.5858 11.25 17 11.25Z" fill="white"/>
<path fill-rule="evenodd" clip-rule="evenodd" d="M27.75 14C27.75 13.5858 28.0858 13.25 28.5 13.25H29C30.5188 13.25 31.75 14.4812 31.75 16V20C31.75 20.4142 31.4142 20.75 31 20.75C30.5858 20.75 30.25 20.4142 30.25 20V16C30.25 15.3096 29.6904 14.75 29 14.75H28.5C28.0858 14.75 27.75 14.4142 27.75 14Z" fill="white"/>
</svg>
