<svg width="44" height="44" viewBox="0 0 44 44" fill="none" xmlns="http://www.w3.org/2000/svg">
<rect width="44" height="44" rx="4" fill="#2C2830"/>
<path fill-rule="evenodd" clip-rule="evenodd" d="M14.3317 24.3404C14.4597 24.5918 14.7179 24.7501 15 24.7501H20.25V31.0001C20.25 31.3249 20.4591 31.6128 20.7681 31.7133C21.077 31.8137 21.4155 31.7039 21.6066 31.4412L29.6066 20.4412C29.7725 20.213 29.7963 19.9111 29.6683 19.6597C29.5403 19.4083 29.2821 19.2501 29 19.2501H23.75V13.0001C23.75 12.6752 23.5409 12.3873 23.2319 12.2868C22.923 12.1864 22.5845 12.2962 22.3935 12.5589L14.3935 23.5589C14.2275 23.7871 14.2037 24.089 14.3317 24.3404ZM22.25 15.3064V20.0001C22.25 20.4143 22.5858 20.7501 23 20.7501H27.5272L21.75 28.6937V24.0001C21.75 23.5858 21.4142 23.2501 21 23.2501H16.4728L22.25 15.3064Z" fill="#AB5CFA"/>
</svg>
