<svg width="44" height="44" viewBox="0 0 44 44" fill="none" xmlns="http://www.w3.org/2000/svg">
<rect width="44" height="44" rx="4" fill="#2C2830"/>
<path fill-rule="evenodd" clip-rule="evenodd" d="M22 12.75C17.9959 12.75 14.75 15.9959 14.75 20C14.75 20.9073 15.1716 22.0709 15.9035 23.371C16.6242 24.651 17.5949 25.9758 18.5808 27.1823C19.5643 28.386 20.5499 29.4563 21.2906 30.2264C21.5656 30.5124 21.8063 30.7564 22 30.9499C22.1937 30.7564 22.4344 30.5124 22.7094 30.2264C23.4501 29.4563 24.4357 28.386 25.4192 27.1823C26.4051 25.9758 27.3758 24.651 28.0965 23.371C28.8284 22.0709 29.25 20.9073 29.25 20C29.25 15.9959 26.0041 12.75 22 12.75ZM22 32C21.4841 32.5444 21.484 32.5443 21.4838 32.5441L21.477 32.5377L21.4586 32.5201L21.389 32.4532C21.3286 32.3948 21.2408 32.3093 21.1294 32.1993C20.9066 31.9794 20.5895 31.6614 20.2094 31.2662C19.4501 30.4767 18.4357 29.3754 17.4192 28.1314C16.4051 26.8902 15.3758 25.4911 14.5965 24.1069C13.8284 22.7428 13.25 21.3018 13.25 20C13.25 15.1675 17.1675 11.25 22 11.25C26.8325 11.25 30.75 15.1675 30.75 20C30.75 21.3018 30.1716 22.7428 29.4035 24.1069C28.6242 25.4911 27.5949 26.8902 26.5808 28.1314C25.5643 29.3754 24.5499 30.4767 23.7906 31.2662C23.4105 31.6614 23.0934 31.9794 22.8706 32.1993C22.7592 32.3093 22.6714 32.3948 22.611 32.4532L22.5414 32.5201L22.523 32.5377L22.518 32.5424L22.5166 32.5437C22.5164 32.5439 22.5159 32.5444 22 32ZM22 32L22.5166 32.5437L22 33.0333L21.4838 32.5441L22 32Z" fill="#747278"/>
<path d="M22 21C22.5523 21 23 20.5523 23 20C23 19.4477 22.5523 19 22 19C21.4477 19 21 19.4477 21 20C21 20.5523 21.4477 21 22 21Z" fill="#747278"/>
<path fill-rule="evenodd" clip-rule="evenodd" d="M22 19.75C21.8619 19.75 21.75 19.8619 21.75 20C21.75 20.1381 21.8619 20.25 22 20.25C22.1381 20.25 22.25 20.1381 22.25 20C22.25 19.8619 22.1381 19.75 22 19.75ZM20.25 20C20.25 19.0335 21.0335 18.25 22 18.25C22.9665 18.25 23.75 19.0335 23.75 20C23.75 20.9665 22.9665 21.75 22 21.75C21.0335 21.75 20.25 20.9665 20.25 20Z" fill="#747278"/>
</svg>
