<svg width="44" height="44" viewBox="0 0 44 44" fill="none" xmlns="http://www.w3.org/2000/svg">
<rect width="44" height="44" rx="4" fill="#2C2830"/>
<path fill-rule="evenodd" clip-rule="evenodd" d="M14.0637 11.25L17.8146 11.25C18.127 11.25 18.4066 11.4436 18.5166 11.736L19.972 15.6059C20.0202 15.734 20.0324 15.8728 20.0073 16.0073L19.278 19.9193C20.1744 22.0273 21.655 23.4439 24.1107 24.7146L27.9756 23.9657C28.1128 23.9391 28.2548 23.9514 28.3854 24.0012L32.2671 25.4804C32.5579 25.5912 32.7501 25.87 32.7501 26.1812L32.7501 29.7655C32.7501 31.391 31.3179 32.7101 29.6426 32.3456C26.589 31.6811 20.9317 29.9923 16.9697 26.0303C13.1746 22.2352 11.9031 16.9925 11.475 14.1587C11.2308 12.5417 12.5276 11.25 14.0637 11.25ZM17.2954 12.75L14.0637 12.75C13.3447 12.75 12.8656 13.3218 12.9582 13.9347C13.371 16.6675 14.5786 21.5179 18.0304 24.9697C21.6788 28.6181 26.9826 30.2317 29.9615 30.8799C30.6158 31.0222 31.2501 30.524 31.2501 29.7655L31.2501 26.698L28.0511 25.479L24.1428 26.2363C23.9801 26.2678 23.8117 26.2446 23.6636 26.1703C20.7694 24.7176 18.8904 22.9954 17.8037 20.2785C17.7509 20.1466 17.7367 20.0023 17.7628 19.8625L18.4944 15.9381L17.2954 12.75Z" fill="#747278"/>
</svg>
