<svg width="44" height="44" viewBox="0 0 44 44" fill="none" xmlns="http://www.w3.org/2000/svg">
<rect width="44" height="44" rx="4" fill="#2C2830"/>
<path fill-rule="evenodd" clip-rule="evenodd" d="M14 27.75C13.5858 27.75 13.25 27.4142 13.25 27L13.25 17C13.25 16.5858 13.5858 16.25 14 16.25C14.4142 16.25 14.75 16.5858 14.75 17L14.75 27C14.75 27.4142 14.4142 27.75 14 27.75Z" fill="#FDFDFD"/>
<path fill-rule="evenodd" clip-rule="evenodd" d="M33.75 17C33.75 17.4142 33.4142 17.75 33 17.75L11 17.75C10.5858 17.75 10.25 17.4142 10.25 17C10.25 16.5858 10.5858 16.25 11 16.25L33 16.25C33.4142 16.25 33.75 16.5858 33.75 17Z" fill="#FDFDFD"/>
<path fill-rule="evenodd" clip-rule="evenodd" d="M30.75 20C30.75 20.4142 30.4142 20.75 30 20.75L14 20.75C13.5858 20.75 13.25 20.4142 13.25 20C13.25 19.5858 13.5858 19.25 14 19.25L30 19.25C30.4142 19.25 30.75 19.5858 30.75 20Z" fill="#FDFDFD"/>
<path fill-rule="evenodd" clip-rule="evenodd" d="M30 27.75C29.5858 27.75 29.25 27.4142 29.25 27L29.25 17C29.25 16.5858 29.5858 16.25 30 16.25C30.4142 16.25 30.75 16.5858 30.75 17L30.75 27C30.75 27.4142 30.4142 27.75 30 27.75Z" fill="#FDFDFD"/>
</svg>
